<svg width="273" height="48" viewBox="0 0 273 48" fill="none" xmlns="http://www.w3.org/2000/svg">
<path d="M90.62 35L87.524 27.044H77.336L74.276 35H71L81.044 9.188H83.96L93.968 35H90.62ZM83.672 16.388C83.6 16.196 83.48 15.848 83.312 15.344C83.144 14.84 82.976 14.324 82.808 13.796C82.664 13.244 82.544 12.824 82.448 12.536C82.328 13.016 82.196 13.508 82.052 14.012C81.932 14.492 81.8 14.936 81.656 15.344C81.536 15.752 81.428 16.1 81.332 16.388L78.416 24.164H86.552L83.672 16.388ZM103.892 35.36C101.492 35.36 99.5722 34.532 98.1322 32.876C96.6922 31.196 95.9722 28.7 95.9722 25.388C95.9722 22.076 96.6922 19.58 98.1322 17.9C99.5962 16.196 101.528 15.344 103.928 15.344C104.936 15.344 105.812 15.476 106.556 15.74C107.3 15.98 107.948 16.316 108.5 16.748C109.052 17.18 109.52 17.66 109.904 18.188H110.12C110.096 17.876 110.048 17.42 109.976 16.82C109.928 16.196 109.904 15.704 109.904 15.344V7.64H113.072V35H110.516L110.048 32.408H109.904C109.52 32.96 109.052 33.464 108.5 33.92C107.948 34.352 107.288 34.7 106.52 34.964C105.776 35.228 104.9 35.36 103.892 35.36ZM104.396 32.732C106.436 32.732 107.864 32.18 108.68 31.076C109.52 29.948 109.94 28.256 109.94 26V25.424C109.94 23.024 109.544 21.188 108.752 19.916C107.96 18.62 106.496 17.972 104.36 17.972C102.656 17.972 101.372 18.656 100.508 20.024C99.6682 21.368 99.2482 23.18 99.2482 25.46C99.2482 27.764 99.6682 29.552 100.508 30.824C101.372 32.096 102.668 32.732 104.396 32.732ZM126.509 15.38C128.861 15.38 130.601 15.896 131.729 16.928C132.857 17.96 133.421 19.604 133.421 21.86V35H131.117L130.505 32.264H130.361C129.809 32.96 129.233 33.548 128.633 34.028C128.057 34.484 127.385 34.82 126.617 35.036C125.873 35.252 124.961 35.36 123.881 35.36C122.729 35.36 121.685 35.156 120.749 34.748C119.837 34.34 119.117 33.716 118.589 32.876C118.061 32.012 117.797 30.932 117.797 29.636C117.797 27.716 118.553 26.24 120.065 25.208C121.577 24.152 123.905 23.576 127.049 23.48L130.325 23.372V22.22C130.325 20.612 129.977 19.496 129.281 18.872C128.585 18.248 127.601 17.936 126.329 17.936C125.321 17.936 124.361 18.092 123.449 18.404C122.537 18.692 121.685 19.028 120.893 19.412L119.921 17.036C120.761 16.58 121.757 16.196 122.909 15.884C124.061 15.548 125.261 15.38 126.509 15.38ZM127.445 25.676C125.045 25.772 123.377 26.156 122.441 26.828C121.529 27.5 121.073 28.448 121.073 29.672C121.073 30.752 121.397 31.544 122.045 32.048C122.717 32.552 123.569 32.804 124.601 32.804C126.233 32.804 127.589 32.36 128.669 31.472C129.749 30.56 130.289 29.168 130.289 27.296V25.568L127.445 25.676ZM148.56 15.344C150.936 15.344 152.844 16.172 154.284 17.828C155.748 19.484 156.48 21.98 156.48 25.316C156.48 27.5 156.144 29.348 155.472 30.86C154.824 32.348 153.9 33.476 152.7 34.244C151.524 34.988 150.132 35.36 148.524 35.36C147.54 35.36 146.664 35.228 145.896 34.964C145.128 34.7 144.468 34.364 143.916 33.956C143.388 33.524 142.932 33.056 142.548 32.552H142.332C142.38 32.96 142.428 33.476 142.476 34.1C142.524 34.724 142.548 35.264 142.548 35.72V43.64H139.38V15.704H141.972L142.404 18.332H142.548C142.932 17.78 143.388 17.276 143.916 16.82C144.468 16.364 145.116 16.004 145.86 15.74C146.628 15.476 147.528 15.344 148.56 15.344ZM147.984 18.008C146.688 18.008 145.644 18.26 144.852 18.764C144.06 19.244 143.484 19.976 143.124 20.96C142.764 21.944 142.572 23.192 142.548 24.704V25.316C142.548 26.9 142.716 28.244 143.052 29.348C143.388 30.452 143.952 31.292 144.744 31.868C145.56 32.444 146.664 32.732 148.056 32.732C149.232 32.732 150.192 32.408 150.936 31.76C151.704 31.112 152.268 30.236 152.628 29.132C153.012 28.004 153.204 26.72 153.204 25.28C153.204 23.072 152.772 21.308 151.908 19.988C151.068 18.668 149.76 18.008 147.984 18.008ZM167.973 32.768C168.453 32.768 168.945 32.732 169.449 32.66C169.953 32.564 170.361 32.468 170.673 32.372V34.784C170.337 34.952 169.857 35.084 169.233 35.18C168.609 35.3 168.009 35.36 167.433 35.36C166.425 35.36 165.489 35.192 164.625 34.856C163.785 34.496 163.101 33.884 162.573 33.02C162.045 32.156 161.781 30.944 161.781 29.384V18.152H159.045V16.64L161.817 15.38L163.077 11.276H164.949V15.704H170.529V18.152H164.949V29.312C164.949 30.488 165.225 31.364 165.777 31.94C166.353 32.492 167.085 32.768 167.973 32.768ZM177.705 15.704V35H174.537V15.704H177.705ZM176.157 8.468C176.637 8.468 177.057 8.636 177.417 8.972C177.801 9.284 177.993 9.788 177.993 10.484C177.993 11.156 177.801 11.66 177.417 11.996C177.057 12.332 176.637 12.5 176.157 12.5C175.629 12.5 175.185 12.332 174.825 11.996C174.465 11.66 174.285 11.156 174.285 10.484C174.285 9.788 174.465 9.284 174.825 8.972C175.185 8.636 175.629 8.468 176.157 8.468ZM195.59 35L187.13 12.464H186.986C187.034 12.944 187.07 13.556 187.094 14.3C187.142 15.044 187.178 15.86 187.202 16.748C187.226 17.612 187.238 18.5 187.238 19.412V35H184.25V9.296H189.038L196.958 30.356H197.102L205.166 9.296H209.918V35H206.714V19.196C206.714 18.356 206.726 17.528 206.75 16.712C206.774 15.872 206.81 15.092 206.858 14.372C206.906 13.628 206.942 13.004 206.966 12.5H206.822L198.254 35H195.59ZM223.786 15.38C226.138 15.38 227.878 15.896 229.006 16.928C230.134 17.96 230.698 19.604 230.698 21.86V35H228.394L227.782 32.264H227.638C227.086 32.96 226.51 33.548 225.91 34.028C225.334 34.484 224.662 34.82 223.894 35.036C223.15 35.252 222.238 35.36 221.158 35.36C220.006 35.36 218.962 35.156 218.026 34.748C217.114 34.34 216.394 33.716 215.866 32.876C215.338 32.012 215.074 30.932 215.074 29.636C215.074 27.716 215.83 26.24 217.342 25.208C218.854 24.152 221.182 23.576 224.326 23.48L227.602 23.372V22.22C227.602 20.612 227.254 19.496 226.558 18.872C225.862 18.248 224.878 17.936 223.606 17.936C222.598 17.936 221.638 18.092 220.726 18.404C219.814 18.692 218.962 19.028 218.17 19.412L217.198 17.036C218.038 16.58 219.034 16.196 220.186 15.884C221.338 15.548 222.538 15.38 223.786 15.38ZM224.722 25.676C222.322 25.772 220.654 26.156 219.718 26.828C218.806 27.5 218.35 28.448 218.35 29.672C218.35 30.752 218.674 31.544 219.322 32.048C219.994 32.552 220.846 32.804 221.878 32.804C223.51 32.804 224.866 32.36 225.946 31.472C227.026 30.56 227.566 29.168 227.566 27.296V25.568L224.722 25.676ZM245.658 15.344C246.018 15.344 246.402 15.368 246.81 15.416C247.242 15.44 247.614 15.488 247.926 15.56L247.53 18.476C247.218 18.404 246.87 18.344 246.486 18.296C246.126 18.248 245.778 18.224 245.442 18.224C244.698 18.224 243.99 18.38 243.318 18.692C242.646 19.004 242.046 19.448 241.518 20.024C240.99 20.576 240.57 21.248 240.258 22.04C239.97 22.832 239.826 23.72 239.826 24.704V35H236.658V15.704H239.25L239.61 19.232H239.754C240.162 18.512 240.654 17.864 241.23 17.288C241.806 16.688 242.466 16.22 243.21 15.884C243.954 15.524 244.77 15.344 245.658 15.344ZM257.973 32.768C258.453 32.768 258.945 32.732 259.449 32.66C259.953 32.564 260.361 32.468 260.673 32.372V34.784C260.337 34.952 259.857 35.084 259.233 35.18C258.609 35.3 258.009 35.36 257.433 35.36C256.425 35.36 255.489 35.192 254.625 34.856C253.785 34.496 253.101 33.884 252.573 33.02C252.045 32.156 251.781 30.944 251.781 29.384V18.152H249.045V16.64L251.817 15.38L253.077 11.276H254.949V15.704H260.529V18.152H254.949V29.312C254.949 30.488 255.225 31.364 255.777 31.94C256.353 32.492 257.085 32.768 257.973 32.768Z" fill="#F1F1F1"/>
<mask id="mask0_761_2582" style="mask-type:luminance" maskUnits="userSpaceOnUse" x="0" y="6" width="48" height="31">
<path d="M0.960938 6.92773H47.9485V36.9007H0.960938V6.92773Z" fill="white"/>
</mask>
<g mask="url(#mask0_761_2582)">
<mask id="mask1_761_2582" style="mask-type:luminance" maskUnits="userSpaceOnUse" x="0" y="6" width="48" height="31">
<path d="M47.5841 36.0336C47.5841 36.4255 47.2599 36.734 46.8517 36.734H14.543C12.9294 36.734 11.5582 35.6237 11.2965 34.1147L6.95025 9.56737C6.82299 8.84891 6.18425 8.32863 5.42066 8.32863H1.70353C1.29532 8.32863 0.96875 8.01782 0.96875 7.62818C0.96875 7.23855 1.29532 6.92773 1.70353 6.92773H5.42066C6.89742 6.92773 8.15327 7.939 8.40541 9.32864L12.7421 33.8759C12.8885 34.7138 13.6521 35.3354 14.543 35.3354H46.8517C47.2479 35.3354 47.5841 35.6439 47.5841 36.0336Z" fill="white"/>
</mask>
<g mask="url(#mask1_761_2582)">
<path d="M0.96875 6.92773V36.734H47.5841V6.92773H0.96875Z" fill="url(#paint0_linear_761_2582)"/>
</g>
</g>
<mask id="mask2_761_2582" style="mask-type:luminance" maskUnits="userSpaceOnUse" x="14" y="38" width="33" height="7">
<path d="M14.7539 38.0547H46.1046V44.9533H14.7539V38.0547Z" fill="white"/>
</mask>
<g mask="url(#mask2_761_2582)">
<mask id="mask3_761_2582" style="mask-type:luminance" maskUnits="userSpaceOnUse" x="14" y="38" width="32" height="7">
<path d="M18.428 38.2949C16.4998 38.2949 14.9414 39.7837 14.9414 41.6238C14.9414 43.4638 16.4998 44.9526 18.428 44.9526C20.3538 44.9526 21.9146 43.4638 21.9146 41.6238C21.9146 39.7837 20.3538 38.2949 18.428 38.2949ZM18.428 42.7634C17.7677 42.7634 17.2226 42.2544 17.2226 41.6147C17.2226 40.9841 17.7581 40.4638 18.428 40.4638C19.0884 40.4638 19.631 40.9729 19.631 41.6147C19.631 42.2544 19.098 42.7634 18.428 42.7634ZM42.4213 38.2949C40.4931 38.2949 38.9322 39.7837 38.9322 41.6238C38.9322 43.4638 40.4931 44.9526 42.4213 44.9526C44.3471 44.9526 45.9079 43.4638 45.9079 41.6238C45.9079 39.7837 44.3374 38.2949 42.4213 38.2949ZM42.4213 42.7634C41.7609 42.7634 41.2158 42.2544 41.2158 41.6147C41.2158 40.9841 41.7513 40.4638 42.4213 40.4638C43.0816 40.4638 43.6243 40.9729 43.6243 41.6147C43.6243 42.2544 43.0816 42.7634 42.4213 42.7634Z" fill="white"/>
</mask>
<g mask="url(#mask3_761_2582)">
<path d="M14.9414 38.2949V44.9526H45.9079V38.2949H14.9414Z" fill="url(#paint1_linear_761_2582)"/>
</g>
</g>
<mask id="mask4_761_2582" style="mask-type:luminance" maskUnits="userSpaceOnUse" x="11" y="13" width="40" height="21">
<path d="M11.6797 13.2617H50.1884V33.4419H11.6797V13.2617Z" fill="white"/>
</mask>
<g mask="url(#mask4_761_2582)">
<mask id="mask5_761_2582" style="mask-type:luminance" maskUnits="userSpaceOnUse" x="12" y="13" width="38" height="21">
<path d="M14.2989 13.2676H47.7194C49.1121 13.2676 50.1807 14.4568 49.9501 15.7766L47.2463 31.5243C47.0687 32.5649 46.1274 33.3351 45.0156 33.3351H17.0027C15.8909 33.3351 14.9496 32.5649 14.7719 31.5243L12.0705 15.7766C11.84 14.468 12.9061 13.2676 14.2989 13.2676Z" fill="white"/>
</mask>
<g mask="url(#mask5_761_2582)">
<path d="M11.8398 13.2676V33.3351H50.1805V13.2676H11.8398Z" fill="url(#paint2_linear_761_2582)"/>
</g>
</g>
<mask id="mask6_761_2582" style="mask-type:luminance" maskUnits="userSpaceOnUse" x="19" y="15" width="9" height="17">
<path d="M19.0078 15.4863H27.6619V31.7116H19.0078V15.4863Z" fill="white"/>
</mask>
<g mask="url(#mask6_761_2582)">
<path d="M20.7586 31.189L27.4437 17.7116L26.2911 15.4863L19.0273 30.2656L20.7586 31.189Z" fill="white"/>
</g>
<path d="M25.4277 25.9189L28.4245 19.9414L34.2403 29.9392L32.4514 31.1892L28.4821 24.3964L27.4448 26.081L25.4277 25.9189Z" fill="white"/>
<mask id="mask7_761_2582" style="mask-type:luminance" maskUnits="userSpaceOnUse" x="29" y="19" width="13" height="13">
<path d="M29.5059 19.0273H41.2071V31.7818H29.5059V19.0273Z" fill="white"/>
</mask>
<g mask="url(#mask7_761_2582)">
<path d="M39.5238 31.7827V22.0214L35.4081 28.7737L29.7676 19.4043H32.0344L35.4585 25.0687L38.8323 19.4043H41.1879V31.7827H39.5238Z" fill="white"/>
</g>
<defs>
<linearGradient id="paint0_linear_761_2582" x1="0.969813" y1="21.8302" x2="47.5841" y2="21.8302" gradientUnits="userSpaceOnUse">
<stop stop-color="#1D1D1B"/>
<stop offset="0.00390625" stop-color="#1D1E1C"/>
<stop offset="0.0078125" stop-color="#1E1F1D"/>
<stop offset="0.0117187" stop-color="#1E1F1D"/>
<stop offset="0.015625" stop-color="#1E201E"/>
<stop offset="0.0195312" stop-color="#1E211F"/>
<stop offset="0.0234375" stop-color="#1F2220"/>
<stop offset="0.0273438" stop-color="#1F2221"/>
<stop offset="0.03125" stop-color="#1F2321"/>
<stop offset="0.0351562" stop-color="#1F2422"/>
<stop offset="0.0390625" stop-color="#202523"/>
<stop offset="0.0429687" stop-color="#202524"/>
<stop offset="0.046875" stop-color="#202625"/>
<stop offset="0.0507812" stop-color="#202725"/>
<stop offset="0.0546875" stop-color="#212826"/>
<stop offset="0.0585937" stop-color="#212927"/>
<stop offset="0.0625" stop-color="#212928"/>
<stop offset="0.0664062" stop-color="#212A29"/>
<stop offset="0.0703125" stop-color="#212B29"/>
<stop offset="0.0742187" stop-color="#222C2A"/>
<stop offset="0.078125" stop-color="#222C2B"/>
<stop offset="0.0820312" stop-color="#222D2C"/>
<stop offset="0.0859375" stop-color="#222E2C"/>
<stop offset="0.0898437" stop-color="#232F2D"/>
<stop offset="0.09375" stop-color="#232F2E"/>
<stop offset="0.0976562" stop-color="#23302F"/>
<stop offset="0.101562" stop-color="#233130"/>
<stop offset="0.105469" stop-color="#243230"/>
<stop offset="0.109375" stop-color="#243231"/>
<stop offset="0.113281" stop-color="#243332"/>
<stop offset="0.117187" stop-color="#243433"/>
<stop offset="0.121094" stop-color="#253534"/>
<stop offset="0.125" stop-color="#253634"/>
<stop offset="0.128906" stop-color="#253635"/>
<stop offset="0.132813" stop-color="#253736"/>
<stop offset="0.136719" stop-color="#263837"/>
<stop offset="0.140625" stop-color="#263938"/>
<stop offset="0.144531" stop-color="#263938"/>
<stop offset="0.148438" stop-color="#263A39"/>
<stop offset="0.152344" stop-color="#273B3A"/>
<stop offset="0.15625" stop-color="#273C3B"/>
<stop offset="0.160156" stop-color="#273C3C"/>
<stop offset="0.164062" stop-color="#273D3C"/>
<stop offset="0.167969" stop-color="#283E3D"/>
<stop offset="0.171875" stop-color="#283F3E"/>
<stop offset="0.175781" stop-color="#283F3F"/>
<stop offset="0.179688" stop-color="#284040"/>
<stop offset="0.183594" stop-color="#294140"/>
<stop offset="0.1875" stop-color="#294241"/>
<stop offset="0.191406" stop-color="#294342"/>
<stop offset="0.195312" stop-color="#294343"/>
<stop offset="0.199219" stop-color="#2A4443"/>
<stop offset="0.203125" stop-color="#2A4544"/>
<stop offset="0.207031" stop-color="#2A4645"/>
<stop offset="0.210938" stop-color="#2A4646"/>
<stop offset="0.214844" stop-color="#2B4747"/>
<stop offset="0.21875" stop-color="#2B4847"/>
<stop offset="0.222656" stop-color="#2B4948"/>
<stop offset="0.226562" stop-color="#2B4949"/>
<stop offset="0.230469" stop-color="#2C4A4A"/>
<stop offset="0.234375" stop-color="#2C4B4B"/>
<stop offset="0.238281" stop-color="#2C4C4B"/>
<stop offset="0.242187" stop-color="#2C4D4C"/>
<stop offset="0.246094" stop-color="#2D4D4D"/>
<stop offset="0.25" stop-color="#2D4E4E"/>
<stop offset="0.253906" stop-color="#2D4F4F"/>
<stop offset="0.257812" stop-color="#2D504F"/>
<stop offset="0.261719" stop-color="#2E5050"/>
<stop offset="0.265625" stop-color="#2E5151"/>
<stop offset="0.269531" stop-color="#2E5252"/>
<stop offset="0.273437" stop-color="#2E5353"/>
<stop offset="0.277344" stop-color="#2F5353"/>
<stop offset="0.28125" stop-color="#2F5454"/>
<stop offset="0.285156" stop-color="#2F5555"/>
<stop offset="0.289062" stop-color="#2F5656"/>
<stop offset="0.292969" stop-color="#305657"/>
<stop offset="0.296875" stop-color="#305757"/>
<stop offset="0.300781" stop-color="#305858"/>
<stop offset="0.304687" stop-color="#305959"/>
<stop offset="0.308594" stop-color="#315A5A"/>
<stop offset="0.3125" stop-color="#315A5A"/>
<stop offset="0.316406" stop-color="#315B5B"/>
<stop offset="0.320312" stop-color="#315C5C"/>
<stop offset="0.324219" stop-color="#315D5D"/>
<stop offset="0.328125" stop-color="#325D5E"/>
<stop offset="0.332031" stop-color="#325E5E"/>
<stop offset="0.335937" stop-color="#325F5F"/>
<stop offset="0.339844" stop-color="#326060"/>
<stop offset="0.34375" stop-color="#336061"/>
<stop offset="0.347656" stop-color="#336162"/>
<stop offset="0.351562" stop-color="#336262"/>
<stop offset="0.355469" stop-color="#336363"/>
<stop offset="0.359375" stop-color="#346364"/>
<stop offset="0.363281" stop-color="#346465"/>
<stop offset="0.367187" stop-color="#346566"/>
<stop offset="0.371094" stop-color="#346666"/>
<stop offset="0.375" stop-color="#356767"/>
<stop offset="0.378906" stop-color="#356768"/>
<stop offset="0.382812" stop-color="#356869"/>
<stop offset="0.386719" stop-color="#35696A"/>
<stop offset="0.390625" stop-color="#366A6A"/>
<stop offset="0.394531" stop-color="#366A6B"/>
<stop offset="0.398438" stop-color="#366B6C"/>
<stop offset="0.402344" stop-color="#366C6D"/>
<stop offset="0.40625" stop-color="#376D6D"/>
<stop offset="0.410156" stop-color="#376D6E"/>
<stop offset="0.414062" stop-color="#376E6F"/>
<stop offset="0.417969" stop-color="#376F70"/>
<stop offset="0.421875" stop-color="#387071"/>
<stop offset="0.425781" stop-color="#387071"/>
<stop offset="0.429688" stop-color="#387172"/>
<stop offset="0.433594" stop-color="#387273"/>
<stop offset="0.4375" stop-color="#397374"/>
<stop offset="0.441406" stop-color="#397475"/>
<stop offset="0.445312" stop-color="#397475"/>
<stop offset="0.449219" stop-color="#397576"/>
<stop offset="0.453125" stop-color="#3A7677"/>
<stop offset="0.457031" stop-color="#3A7778"/>
<stop offset="0.460937" stop-color="#3A7779"/>
<stop offset="0.464844" stop-color="#3A7879"/>
<stop offset="0.46875" stop-color="#3B797A"/>
<stop offset="0.472656" stop-color="#3B7A7B"/>
<stop offset="0.476562" stop-color="#3B7A7C"/>
<stop offset="0.480469" stop-color="#3B7B7D"/>
<stop offset="0.484375" stop-color="#3C7C7D"/>
<stop offset="0.488281" stop-color="#3C7D7E"/>
<stop offset="0.492187" stop-color="#3C7D7F"/>
<stop offset="0.496094" stop-color="#3C7E80"/>
<stop offset="0.5" stop-color="#3D7F81"/>
<stop offset="0.503906" stop-color="#3D8081"/>
<stop offset="0.507812" stop-color="#3D8182"/>
<stop offset="0.511719" stop-color="#3D8183"/>
<stop offset="0.515625" stop-color="#3E8284"/>
<stop offset="0.519531" stop-color="#3E8384"/>
<stop offset="0.523438" stop-color="#3E8485"/>
<stop offset="0.527344" stop-color="#3E8486"/>
<stop offset="0.53125" stop-color="#3F8587"/>
<stop offset="0.535156" stop-color="#3F8688"/>
<stop offset="0.539062" stop-color="#3F8788"/>
<stop offset="0.542969" stop-color="#3F8789"/>
<stop offset="0.546875" stop-color="#40888A"/>
<stop offset="0.550781" stop-color="#40898B"/>
<stop offset="0.554688" stop-color="#408A8C"/>
<stop offset="0.558594" stop-color="#408A8C"/>
<stop offset="0.5625" stop-color="#418B8D"/>
<stop offset="0.566406" stop-color="#418C8E"/>
<stop offset="0.570312" stop-color="#418D8F"/>
<stop offset="0.574219" stop-color="#418E90"/>
<stop offset="0.578125" stop-color="#418E90"/>
<stop offset="0.582031" stop-color="#428F91"/>
<stop offset="0.585938" stop-color="#429092"/>
<stop offset="0.589844" stop-color="#429193"/>
<stop offset="0.59375" stop-color="#429194"/>
<stop offset="0.597656" stop-color="#439294"/>
<stop offset="0.601562" stop-color="#439395"/>
<stop offset="0.605469" stop-color="#439496"/>
<stop offset="0.609375" stop-color="#439497"/>
<stop offset="0.613281" stop-color="#449598"/>
<stop offset="0.617188" stop-color="#449698"/>
<stop offset="0.621094" stop-color="#449799"/>
<stop offset="0.625" stop-color="#44979A"/>
<stop offset="0.628906" stop-color="#45989B"/>
<stop offset="0.632812" stop-color="#45999B"/>
<stop offset="0.636719" stop-color="#459A9C"/>
<stop offset="0.640625" stop-color="#459B9D"/>
<stop offset="0.644531" stop-color="#469B9E"/>
<stop offset="0.648437" stop-color="#469C9F"/>
<stop offset="0.652344" stop-color="#469D9F"/>
<stop offset="0.65625" stop-color="#469EA0"/>
<stop offset="0.660156" stop-color="#479EA1"/>
<stop offset="0.664062" stop-color="#479FA2"/>
<stop offset="0.667969" stop-color="#47A0A3"/>
<stop offset="0.671875" stop-color="#47A1A3"/>
<stop offset="0.675781" stop-color="#48A1A4"/>
<stop offset="0.679687" stop-color="#48A2A5"/>
<stop offset="0.683594" stop-color="#48A3A6"/>
<stop offset="0.6875" stop-color="#48A4A7"/>
<stop offset="0.691406" stop-color="#49A4A7"/>
<stop offset="0.695312" stop-color="#49A5A8"/>
<stop offset="0.699219" stop-color="#49A6A9"/>
<stop offset="0.703125" stop-color="#49A7AA"/>
<stop offset="0.707031" stop-color="#4AA8AB"/>
<stop offset="0.710937" stop-color="#4AA8AB"/>
<stop offset="0.714844" stop-color="#4AA9AC"/>
<stop offset="0.71875" stop-color="#4AAAAD"/>
<stop offset="0.722656" stop-color="#4BABAE"/>
<stop offset="0.726562" stop-color="#4BABAF"/>
<stop offset="0.730469" stop-color="#4BACAF"/>
<stop offset="0.734375" stop-color="#4BADB0"/>
<stop offset="0.738281" stop-color="#4CAEB1"/>
<stop offset="0.742188" stop-color="#4CAEB2"/>
<stop offset="0.746094" stop-color="#4CAFB2"/>
<stop offset="0.75" stop-color="#4CB0B3"/>
<stop offset="0.753906" stop-color="#4DB1B4"/>
<stop offset="0.757812" stop-color="#4DB1B5"/>
<stop offset="0.761719" stop-color="#4DB2B6"/>
<stop offset="0.765625" stop-color="#4DB3B6"/>
<stop offset="0.769531" stop-color="#4EB4B7"/>
<stop offset="0.773438" stop-color="#4EB5B8"/>
<stop offset="0.777344" stop-color="#4EB5B9"/>
<stop offset="0.78125" stop-color="#4EB6BA"/>
<stop offset="0.785156" stop-color="#4FB7BA"/>
<stop offset="0.789063" stop-color="#4FB8BB"/>
<stop offset="0.792969" stop-color="#4FB8BC"/>
<stop offset="0.796875" stop-color="#4FB9BD"/>
<stop offset="0.800781" stop-color="#50BABE"/>
<stop offset="0.804688" stop-color="#50BBBE"/>
<stop offset="0.808594" stop-color="#50BBBF"/>
<stop offset="0.8125" stop-color="#50BCC0"/>
<stop offset="0.816406" stop-color="#50BDC1"/>
<stop offset="0.820313" stop-color="#51BEC2"/>
<stop offset="0.824219" stop-color="#51BEC2"/>
<stop offset="0.828125" stop-color="#51BFC3"/>
<stop offset="0.832031" stop-color="#51C0C4"/>
<stop offset="0.835938" stop-color="#52C1C5"/>
<stop offset="0.839844" stop-color="#52C2C6"/>
<stop offset="0.84375" stop-color="#52C2C6"/>
<stop offset="0.847656" stop-color="#52C3C7"/>
<stop offset="0.851563" stop-color="#53C4C8"/>
<stop offset="0.855469" stop-color="#53C5C9"/>
<stop offset="0.859375" stop-color="#53C5C9"/>
<stop offset="0.863281" stop-color="#53C6CA"/>
<stop offset="0.867188" stop-color="#54C7CB"/>
<stop offset="0.871094" stop-color="#54C8CC"/>
<stop offset="0.875" stop-color="#54C8CD"/>
<stop offset="0.878906" stop-color="#54C9CD"/>
<stop offset="0.882812" stop-color="#55CACE"/>
<stop offset="0.886719" stop-color="#55CBCF"/>
<stop offset="0.890625" stop-color="#55CCD0"/>
<stop offset="0.894531" stop-color="#55CCD1"/>
<stop offset="0.898438" stop-color="#56CDD1"/>
<stop offset="0.902344" stop-color="#56CED2"/>
<stop offset="0.90625" stop-color="#56CFD3"/>
<stop offset="0.910156" stop-color="#56CFD4"/>
<stop offset="0.914062" stop-color="#57D0D5"/>
<stop offset="0.917969" stop-color="#57D1D5"/>
<stop offset="0.921875" stop-color="#57D2D6"/>
<stop offset="0.925781" stop-color="#57D2D7"/>
<stop offset="0.929688" stop-color="#58D3D8"/>
<stop offset="0.933594" stop-color="#58D4D9"/>
<stop offset="0.9375" stop-color="#58D5D9"/>
<stop offset="0.941406" stop-color="#58D5DA"/>
<stop offset="0.945312" stop-color="#59D6DB"/>
<stop offset="0.949219" stop-color="#59D7DC"/>
<stop offset="0.953125" stop-color="#59D8DD"/>
<stop offset="0.957031" stop-color="#59D9DD"/>
<stop offset="0.960938" stop-color="#5AD9DE"/>
<stop offset="0.964844" stop-color="#5ADADF"/>
<stop offset="0.96875" stop-color="#5ADBE0"/>
<stop offset="0.972656" stop-color="#5ADCE0"/>
<stop offset="0.976562" stop-color="#5BDCE1"/>
<stop offset="0.980469" stop-color="#5BDDE2"/>
<stop offset="0.984375" stop-color="#5BDEE3"/>
<stop offset="0.988281" stop-color="#5BDFE4"/>
<stop offset="0.992188" stop-color="#5CDFE4"/>
<stop offset="0.996094" stop-color="#5CE0E5"/>
<stop offset="1" stop-color="#5CE1E6"/>
</linearGradient>
<linearGradient id="paint1_linear_761_2582" x1="30.4234" y1="44.9534" x2="30.4234" y2="38.2943" gradientUnits="userSpaceOnUse">
<stop stop-color="#5CE1E6"/>
<stop offset="0.00390625" stop-color="#5CE0E5"/>
<stop offset="0.0078125" stop-color="#5CE0E5"/>
<stop offset="0.0117188" stop-color="#5BDFE4"/>
<stop offset="0.015625" stop-color="#5BDEE3"/>
<stop offset="0.0195312" stop-color="#5BDDE2"/>
<stop offset="0.0234375" stop-color="#5BDCE1"/>
<stop offset="0.0273438" stop-color="#5ADCE1"/>
<stop offset="0.03125" stop-color="#5ADBE0"/>
<stop offset="0.0351562" stop-color="#5ADADF"/>
<stop offset="0.0390625" stop-color="#5AD9DE"/>
<stop offset="0.0429687" stop-color="#59D9DD"/>
<stop offset="0.046875" stop-color="#59D8DD"/>
<stop offset="0.0507813" stop-color="#59D7DC"/>
<stop offset="0.0546875" stop-color="#59D6DB"/>
<stop offset="0.0585938" stop-color="#58D6DA"/>
<stop offset="0.0625" stop-color="#58D5D9"/>
<stop offset="0.0664062" stop-color="#58D4D9"/>
<stop offset="0.0703125" stop-color="#58D3D8"/>
<stop offset="0.0742188" stop-color="#57D3D7"/>
<stop offset="0.078125" stop-color="#57D2D6"/>
<stop offset="0.0820312" stop-color="#57D1D6"/>
<stop offset="0.0859375" stop-color="#57D0D5"/>
<stop offset="0.0898438" stop-color="#56CFD4"/>
<stop offset="0.09375" stop-color="#56CFD3"/>
<stop offset="0.0976562" stop-color="#56CED2"/>
<stop offset="0.101563" stop-color="#56CDD2"/>
<stop offset="0.105469" stop-color="#55CCD1"/>
<stop offset="0.109375" stop-color="#55CCD0"/>
<stop offset="0.113281" stop-color="#55CBCF"/>
<stop offset="0.117188" stop-color="#55CACE"/>
<stop offset="0.121094" stop-color="#54C9CE"/>
<stop offset="0.125" stop-color="#54C9CD"/>
<stop offset="0.128906" stop-color="#54C8CC"/>
<stop offset="0.132812" stop-color="#54C7CB"/>
<stop offset="0.136719" stop-color="#53C6CA"/>
<stop offset="0.140625" stop-color="#53C6CA"/>
<stop offset="0.144531" stop-color="#53C5C9"/>
<stop offset="0.148438" stop-color="#53C4C8"/>
<stop offset="0.152344" stop-color="#53C3C7"/>
<stop offset="0.15625" stop-color="#52C2C6"/>
<stop offset="0.160156" stop-color="#52C2C6"/>
<stop offset="0.164062" stop-color="#52C1C5"/>
<stop offset="0.167969" stop-color="#52C0C4"/>
<stop offset="0.171875" stop-color="#51BFC3"/>
<stop offset="0.175781" stop-color="#51BFC2"/>
<stop offset="0.179688" stop-color="#51BEC2"/>
<stop offset="0.183594" stop-color="#51BDC1"/>
<stop offset="0.1875" stop-color="#50BCC0"/>
<stop offset="0.191406" stop-color="#50BCBF"/>
<stop offset="0.195312" stop-color="#50BBBF"/>
<stop offset="0.199219" stop-color="#50BABE"/>
<stop offset="0.203125" stop-color="#4FB9BD"/>
<stop offset="0.207031" stop-color="#4FB9BC"/>
<stop offset="0.210938" stop-color="#4FB8BB"/>
<stop offset="0.214844" stop-color="#4FB7BB"/>
<stop offset="0.21875" stop-color="#4EB6BA"/>
<stop offset="0.222656" stop-color="#4EB5B9"/>
<stop offset="0.226562" stop-color="#4EB5B8"/>
<stop offset="0.230469" stop-color="#4EB4B7"/>
<stop offset="0.234375" stop-color="#4DB3B7"/>
<stop offset="0.238281" stop-color="#4DB2B6"/>
<stop offset="0.242188" stop-color="#4DB2B5"/>
<stop offset="0.246094" stop-color="#4DB1B4"/>
<stop offset="0.25" stop-color="#4CB0B3"/>
<stop offset="0.253906" stop-color="#4CAFB3"/>
<stop offset="0.257812" stop-color="#4CAFB2"/>
<stop offset="0.261719" stop-color="#4CAEB1"/>
<stop offset="0.265625" stop-color="#4BADB0"/>
<stop offset="0.269531" stop-color="#4BACAF"/>
<stop offset="0.273438" stop-color="#4BACAF"/>
<stop offset="0.277344" stop-color="#4BABAE"/>
<stop offset="0.28125" stop-color="#4AAAAD"/>
<stop offset="0.285156" stop-color="#4AA9AC"/>
<stop offset="0.289062" stop-color="#4AA8AB"/>
<stop offset="0.292969" stop-color="#4AA8AB"/>
<stop offset="0.296875" stop-color="#49A7AA"/>
<stop offset="0.300781" stop-color="#49A6A9"/>
<stop offset="0.304688" stop-color="#49A5A8"/>
<stop offset="0.308594" stop-color="#49A5A8"/>
<stop offset="0.3125" stop-color="#48A4A7"/>
<stop offset="0.316406" stop-color="#48A3A6"/>
<stop offset="0.320312" stop-color="#48A2A5"/>
<stop offset="0.324219" stop-color="#48A2A4"/>
<stop offset="0.328125" stop-color="#47A1A4"/>
<stop offset="0.332031" stop-color="#47A0A3"/>
<stop offset="0.335938" stop-color="#479FA2"/>
<stop offset="0.339844" stop-color="#479EA1"/>
<stop offset="0.34375" stop-color="#469EA0"/>
<stop offset="0.347656" stop-color="#469DA0"/>
<stop offset="0.351563" stop-color="#469C9F"/>
<stop offset="0.355469" stop-color="#469B9E"/>
<stop offset="0.359375" stop-color="#459B9D"/>
<stop offset="0.363281" stop-color="#459A9C"/>
<stop offset="0.367188" stop-color="#45999C"/>
<stop offset="0.371094" stop-color="#45989B"/>
<stop offset="0.375" stop-color="#44989A"/>
<stop offset="0.378906" stop-color="#449799"/>
<stop offset="0.382813" stop-color="#449698"/>
<stop offset="0.386719" stop-color="#449598"/>
<stop offset="0.390625" stop-color="#439597"/>
<stop offset="0.394531" stop-color="#439496"/>
<stop offset="0.398438" stop-color="#439395"/>
<stop offset="0.402344" stop-color="#439294"/>
<stop offset="0.40625" stop-color="#439194"/>
<stop offset="0.410156" stop-color="#429193"/>
<stop offset="0.414063" stop-color="#429092"/>
<stop offset="0.417969" stop-color="#428F91"/>
<stop offset="0.421875" stop-color="#428E91"/>
<stop offset="0.425781" stop-color="#418E90"/>
<stop offset="0.429688" stop-color="#418D8F"/>
<stop offset="0.433594" stop-color="#418C8E"/>
<stop offset="0.4375" stop-color="#418B8D"/>
<stop offset="0.441406" stop-color="#408B8D"/>
<stop offset="0.445313" stop-color="#408A8C"/>
<stop offset="0.449219" stop-color="#40898B"/>
<stop offset="0.453125" stop-color="#40888A"/>
<stop offset="0.457031" stop-color="#3F8889"/>
<stop offset="0.460938" stop-color="#3F8789"/>
<stop offset="0.464844" stop-color="#3F8688"/>
<stop offset="0.46875" stop-color="#3F8587"/>
<stop offset="0.472656" stop-color="#3E8486"/>
<stop offset="0.476563" stop-color="#3E8485"/>
<stop offset="0.480469" stop-color="#3E8385"/>
<stop offset="0.484375" stop-color="#3E8284"/>
<stop offset="0.488281" stop-color="#3D8183"/>
<stop offset="0.492188" stop-color="#3D8182"/>
<stop offset="0.496094" stop-color="#3D8081"/>
<stop offset="0.5" stop-color="#3D7F81"/>
<stop offset="0.503906" stop-color="#3C7E80"/>
<stop offset="0.507812" stop-color="#3C7E7F"/>
<stop offset="0.511719" stop-color="#3C7D7E"/>
<stop offset="0.515625" stop-color="#3C7C7D"/>
<stop offset="0.519531" stop-color="#3B7B7D"/>
<stop offset="0.523438" stop-color="#3B7B7C"/>
<stop offset="0.527344" stop-color="#3B7A7B"/>
<stop offset="0.53125" stop-color="#3B797A"/>
<stop offset="0.535156" stop-color="#3A787A"/>
<stop offset="0.539063" stop-color="#3A7779"/>
<stop offset="0.542969" stop-color="#3A7778"/>
<stop offset="0.546875" stop-color="#3A7677"/>
<stop offset="0.550781" stop-color="#397576"/>
<stop offset="0.554688" stop-color="#397476"/>
<stop offset="0.558594" stop-color="#397475"/>
<stop offset="0.5625" stop-color="#397374"/>
<stop offset="0.566406" stop-color="#387273"/>
<stop offset="0.570313" stop-color="#387172"/>
<stop offset="0.574219" stop-color="#387172"/>
<stop offset="0.578125" stop-color="#387071"/>
<stop offset="0.582031" stop-color="#376F70"/>
<stop offset="0.585938" stop-color="#376E6F"/>
<stop offset="0.589844" stop-color="#376E6E"/>
<stop offset="0.59375" stop-color="#376D6E"/>
<stop offset="0.597656" stop-color="#366C6D"/>
<stop offset="0.601563" stop-color="#366B6C"/>
<stop offset="0.605469" stop-color="#366A6B"/>
<stop offset="0.609375" stop-color="#366A6A"/>
<stop offset="0.613281" stop-color="#35696A"/>
<stop offset="0.617188" stop-color="#356869"/>
<stop offset="0.621094" stop-color="#356768"/>
<stop offset="0.625" stop-color="#356767"/>
<stop offset="0.628906" stop-color="#346666"/>
<stop offset="0.632813" stop-color="#346566"/>
<stop offset="0.636719" stop-color="#346465"/>
<stop offset="0.640625" stop-color="#346464"/>
<stop offset="0.644531" stop-color="#336363"/>
<stop offset="0.648438" stop-color="#336263"/>
<stop offset="0.652344" stop-color="#336162"/>
<stop offset="0.65625" stop-color="#336161"/>
<stop offset="0.660156" stop-color="#336060"/>
<stop offset="0.664063" stop-color="#325F5F"/>
<stop offset="0.667969" stop-color="#325E5F"/>
<stop offset="0.671875" stop-color="#325D5E"/>
<stop offset="0.675781" stop-color="#325D5D"/>
<stop offset="0.679688" stop-color="#315C5C"/>
<stop offset="0.683594" stop-color="#315B5B"/>
<stop offset="0.6875" stop-color="#315A5B"/>
<stop offset="0.691406" stop-color="#315A5A"/>
<stop offset="0.695313" stop-color="#305959"/>
<stop offset="0.699219" stop-color="#305858"/>
<stop offset="0.703125" stop-color="#305757"/>
<stop offset="0.707031" stop-color="#305757"/>
<stop offset="0.710938" stop-color="#2F5656"/>
<stop offset="0.714844" stop-color="#2F5555"/>
<stop offset="0.71875" stop-color="#2F5454"/>
<stop offset="0.722656" stop-color="#2F5453"/>
<stop offset="0.726563" stop-color="#2E5353"/>
<stop offset="0.730469" stop-color="#2E5252"/>
<stop offset="0.734375" stop-color="#2E5151"/>
<stop offset="0.738281" stop-color="#2E5050"/>
<stop offset="0.742188" stop-color="#2D504F"/>
<stop offset="0.746094" stop-color="#2D4F4F"/>
<stop offset="0.75" stop-color="#2D4E4E"/>
<stop offset="0.753906" stop-color="#2D4D4D"/>
<stop offset="0.757813" stop-color="#2C4D4C"/>
<stop offset="0.761719" stop-color="#2C4C4C"/>
<stop offset="0.765625" stop-color="#2C4B4B"/>
<stop offset="0.769531" stop-color="#2C4A4A"/>
<stop offset="0.773438" stop-color="#2B4A49"/>
<stop offset="0.777344" stop-color="#2B4948"/>
<stop offset="0.78125" stop-color="#2B4848"/>
<stop offset="0.785156" stop-color="#2B4747"/>
<stop offset="0.789063" stop-color="#2A4746"/>
<stop offset="0.792969" stop-color="#2A4645"/>
<stop offset="0.796875" stop-color="#2A4544"/>
<stop offset="0.800781" stop-color="#2A4444"/>
<stop offset="0.804688" stop-color="#294343"/>
<stop offset="0.808594" stop-color="#294342"/>
<stop offset="0.8125" stop-color="#294241"/>
<stop offset="0.816406" stop-color="#294140"/>
<stop offset="0.820313" stop-color="#284040"/>
<stop offset="0.824219" stop-color="#28403F"/>
<stop offset="0.828125" stop-color="#283F3E"/>
<stop offset="0.832031" stop-color="#283E3D"/>
<stop offset="0.835938" stop-color="#273D3C"/>
<stop offset="0.839844" stop-color="#273D3C"/>
<stop offset="0.84375" stop-color="#273C3B"/>
<stop offset="0.847656" stop-color="#273B3A"/>
<stop offset="0.851563" stop-color="#263A39"/>
<stop offset="0.855469" stop-color="#263938"/>
<stop offset="0.859375" stop-color="#263938"/>
<stop offset="0.863281" stop-color="#263837"/>
<stop offset="0.867188" stop-color="#253736"/>
<stop offset="0.871094" stop-color="#253635"/>
<stop offset="0.875" stop-color="#253635"/>
<stop offset="0.878906" stop-color="#253534"/>
<stop offset="0.882813" stop-color="#243433"/>
<stop offset="0.886719" stop-color="#243332"/>
<stop offset="0.890625" stop-color="#243331"/>
<stop offset="0.894531" stop-color="#243231"/>
<stop offset="0.898438" stop-color="#243130"/>
<stop offset="0.902344" stop-color="#23302F"/>
<stop offset="0.90625" stop-color="#23302E"/>
<stop offset="0.910156" stop-color="#232F2D"/>
<stop offset="0.914063" stop-color="#232E2D"/>
<stop offset="0.917969" stop-color="#222D2C"/>
<stop offset="0.921875" stop-color="#222C2B"/>
<stop offset="0.925781" stop-color="#222C2A"/>
<stop offset="0.929688" stop-color="#222B29"/>
<stop offset="0.933594" stop-color="#212A29"/>
<stop offset="0.9375" stop-color="#212928"/>
<stop offset="0.941406" stop-color="#212927"/>
<stop offset="0.945312" stop-color="#212826"/>
<stop offset="0.949219" stop-color="#202725"/>
<stop offset="0.953125" stop-color="#202625"/>
<stop offset="0.957031" stop-color="#202624"/>
<stop offset="0.960938" stop-color="#202523"/>
<stop offset="0.964844" stop-color="#1F2422"/>
<stop offset="0.96875" stop-color="#1F2321"/>
<stop offset="0.972656" stop-color="#1F2321"/>
<stop offset="0.976563" stop-color="#1F2220"/>
<stop offset="0.980469" stop-color="#1E211F"/>
<stop offset="0.984375" stop-color="#1E201E"/>
<stop offset="0.988281" stop-color="#1E1F1E"/>
<stop offset="0.992188" stop-color="#1E1F1D"/>
<stop offset="0.996094" stop-color="#1D1E1C"/>
<stop offset="1" stop-color="#1D1D1B"/>
</linearGradient>
<linearGradient id="paint2_linear_761_2582" x1="11.8388" y1="23.3011" x2="50.1796" y2="23.3011" gradientUnits="userSpaceOnUse">
<stop stop-color="#5CE1E6"/>
<stop offset="0.0078125" stop-color="#5CE1E6"/>
<stop offset="0.0117187" stop-color="#5CE0E5"/>
<stop offset="0.015625" stop-color="#5BDFE4"/>
<stop offset="0.0195312" stop-color="#5BDEE3"/>
<stop offset="0.0234375" stop-color="#5BDDE2"/>
<stop offset="0.0273437" stop-color="#5BDDE1"/>
<stop offset="0.03125" stop-color="#5ADCE1"/>
<stop offset="0.0351562" stop-color="#5ADBE0"/>
<stop offset="0.0390625" stop-color="#5ADADF"/>
<stop offset="0.0429687" stop-color="#5AD9DE"/>
<stop offset="0.046875" stop-color="#59D9DD"/>
<stop offset="0.0507812" stop-color="#59D8DD"/>
<stop offset="0.0546875" stop-color="#59D7DC"/>
<stop offset="0.0585937" stop-color="#59D6DB"/>
<stop offset="0.0625" stop-color="#58D6DA"/>
<stop offset="0.0664062" stop-color="#58D5D9"/>
<stop offset="0.0703125" stop-color="#58D4D9"/>
<stop offset="0.0742187" stop-color="#58D3D8"/>
<stop offset="0.078125" stop-color="#57D2D7"/>
<stop offset="0.0820312" stop-color="#57D2D6"/>
<stop offset="0.0859375" stop-color="#57D1D5"/>
<stop offset="0.0898437" stop-color="#57D0D5"/>
<stop offset="0.09375" stop-color="#56CFD4"/>
<stop offset="0.0976562" stop-color="#56CFD3"/>
<stop offset="0.101562" stop-color="#56CED2"/>
<stop offset="0.105469" stop-color="#56CDD1"/>
<stop offset="0.109375" stop-color="#55CCD1"/>
<stop offset="0.113281" stop-color="#55CCD0"/>
<stop offset="0.117187" stop-color="#55CBCF"/>
<stop offset="0.121094" stop-color="#55CACE"/>
<stop offset="0.125" stop-color="#54C9CD"/>
<stop offset="0.128906" stop-color="#54C8CD"/>
<stop offset="0.132812" stop-color="#54C8CC"/>
<stop offset="0.136719" stop-color="#54C7CB"/>
<stop offset="0.140625" stop-color="#53C6CA"/>
<stop offset="0.144531" stop-color="#53C5C9"/>
<stop offset="0.148438" stop-color="#53C5C9"/>
<stop offset="0.152344" stop-color="#53C4C8"/>
<stop offset="0.15625" stop-color="#52C3C7"/>
<stop offset="0.160156" stop-color="#52C2C6"/>
<stop offset="0.164062" stop-color="#52C1C5"/>
<stop offset="0.167969" stop-color="#52C1C5"/>
<stop offset="0.171875" stop-color="#51C0C4"/>
<stop offset="0.175781" stop-color="#51BFC3"/>
<stop offset="0.179687" stop-color="#51BEC2"/>
<stop offset="0.183594" stop-color="#51BEC1"/>
<stop offset="0.1875" stop-color="#50BDC1"/>
<stop offset="0.191406" stop-color="#50BCC0"/>
<stop offset="0.195312" stop-color="#50BBBF"/>
<stop offset="0.199219" stop-color="#50BABE"/>
<stop offset="0.203125" stop-color="#4FBABD"/>
<stop offset="0.207031" stop-color="#4FB9BD"/>
<stop offset="0.210937" stop-color="#4FB8BC"/>
<stop offset="0.214844" stop-color="#4FB7BB"/>
<stop offset="0.21875" stop-color="#4EB7BA"/>
<stop offset="0.222656" stop-color="#4EB6B9"/>
<stop offset="0.226562" stop-color="#4EB5B9"/>
<stop offset="0.230469" stop-color="#4EB4B8"/>
<stop offset="0.234375" stop-color="#4DB4B7"/>
<stop offset="0.238281" stop-color="#4DB3B6"/>
<stop offset="0.242187" stop-color="#4DB2B5"/>
<stop offset="0.246094" stop-color="#4DB1B5"/>
<stop offset="0.25" stop-color="#4CB0B4"/>
<stop offset="0.253906" stop-color="#4CB0B3"/>
<stop offset="0.257812" stop-color="#4CAFB2"/>
<stop offset="0.261719" stop-color="#4CAEB1"/>
<stop offset="0.265625" stop-color="#4BADB1"/>
<stop offset="0.269531" stop-color="#4BADB0"/>
<stop offset="0.273438" stop-color="#4BACAF"/>
<stop offset="0.277344" stop-color="#4BABAE"/>
<stop offset="0.28125" stop-color="#4AAAAD"/>
<stop offset="0.285156" stop-color="#4AA9AD"/>
<stop offset="0.289062" stop-color="#4AA9AC"/>
<stop offset="0.292969" stop-color="#4AA8AB"/>
<stop offset="0.296875" stop-color="#49A7AA"/>
<stop offset="0.300781" stop-color="#49A6A9"/>
<stop offset="0.304688" stop-color="#49A6A9"/>
<stop offset="0.308594" stop-color="#49A5A8"/>
<stop offset="0.3125" stop-color="#48A4A7"/>
<stop offset="0.316406" stop-color="#48A3A6"/>
<stop offset="0.320312" stop-color="#48A3A5"/>
<stop offset="0.324219" stop-color="#48A2A5"/>
<stop offset="0.328125" stop-color="#47A1A4"/>
<stop offset="0.332031" stop-color="#47A0A3"/>
<stop offset="0.335938" stop-color="#479FA2"/>
<stop offset="0.339844" stop-color="#479FA1"/>
<stop offset="0.34375" stop-color="#479EA1"/>
<stop offset="0.347656" stop-color="#469DA0"/>
<stop offset="0.351562" stop-color="#469C9F"/>
<stop offset="0.355469" stop-color="#469C9E"/>
<stop offset="0.359375" stop-color="#469B9D"/>
<stop offset="0.363281" stop-color="#459A9D"/>
<stop offset="0.367187" stop-color="#45999C"/>
<stop offset="0.371094" stop-color="#45989B"/>
<stop offset="0.375" stop-color="#45989A"/>
<stop offset="0.378906" stop-color="#449799"/>
<stop offset="0.382812" stop-color="#449699"/>
<stop offset="0.386719" stop-color="#449598"/>
<stop offset="0.390625" stop-color="#449597"/>
<stop offset="0.394531" stop-color="#439496"/>
<stop offset="0.398437" stop-color="#439395"/>
<stop offset="0.402344" stop-color="#439295"/>
<stop offset="0.40625" stop-color="#439294"/>
<stop offset="0.410156" stop-color="#429193"/>
<stop offset="0.414062" stop-color="#429092"/>
<stop offset="0.417969" stop-color="#428F91"/>
<stop offset="0.421875" stop-color="#428E91"/>
<stop offset="0.425781" stop-color="#418E90"/>
<stop offset="0.429688" stop-color="#418D8F"/>
<stop offset="0.433594" stop-color="#418C8E"/>
<stop offset="0.4375" stop-color="#418B8D"/>
<stop offset="0.441406" stop-color="#408B8D"/>
<stop offset="0.445312" stop-color="#408A8C"/>
<stop offset="0.449219" stop-color="#40898B"/>
<stop offset="0.453125" stop-color="#40888A"/>
<stop offset="0.457031" stop-color="#3F8789"/>
<stop offset="0.460937" stop-color="#3F8789"/>
<stop offset="0.464844" stop-color="#3F8688"/>
<stop offset="0.46875" stop-color="#3F8587"/>
<stop offset="0.472656" stop-color="#3E8486"/>
<stop offset="0.476562" stop-color="#3E8485"/>
<stop offset="0.480469" stop-color="#3E8385"/>
<stop offset="0.484375" stop-color="#3E8284"/>
<stop offset="0.488281" stop-color="#3D8183"/>
<stop offset="0.492187" stop-color="#3D8182"/>
<stop offset="0.496094" stop-color="#3D8081"/>
<stop offset="0.5" stop-color="#3D7F81"/>
<stop offset="0.503906" stop-color="#3C7E80"/>
<stop offset="0.507812" stop-color="#3C7D7F"/>
<stop offset="0.511719" stop-color="#3C7D7E"/>
<stop offset="0.515625" stop-color="#3C7C7D"/>
<stop offset="0.519531" stop-color="#3B7B7D"/>
<stop offset="0.523437" stop-color="#3B7A7C"/>
<stop offset="0.527344" stop-color="#3B7A7B"/>
<stop offset="0.53125" stop-color="#3B797A"/>
<stop offset="0.535156" stop-color="#3A7879"/>
<stop offset="0.539062" stop-color="#3A7779"/>
<stop offset="0.542969" stop-color="#3A7678"/>
<stop offset="0.546875" stop-color="#3A7677"/>
<stop offset="0.550781" stop-color="#397576"/>
<stop offset="0.554687" stop-color="#397475"/>
<stop offset="0.558594" stop-color="#397374"/>
<stop offset="0.5625" stop-color="#397374"/>
<stop offset="0.566406" stop-color="#387273"/>
<stop offset="0.570312" stop-color="#387172"/>
<stop offset="0.574219" stop-color="#387071"/>
<stop offset="0.578125" stop-color="#387070"/>
<stop offset="0.582031" stop-color="#376F70"/>
<stop offset="0.585937" stop-color="#376E6F"/>
<stop offset="0.589844" stop-color="#376D6E"/>
<stop offset="0.59375" stop-color="#376C6D"/>
<stop offset="0.597656" stop-color="#366C6C"/>
<stop offset="0.601562" stop-color="#366B6C"/>
<stop offset="0.605469" stop-color="#366A6B"/>
<stop offset="0.609375" stop-color="#36696A"/>
<stop offset="0.613281" stop-color="#356969"/>
<stop offset="0.617187" stop-color="#356868"/>
<stop offset="0.621094" stop-color="#356768"/>
<stop offset="0.625" stop-color="#356667"/>
<stop offset="0.628906" stop-color="#346566"/>
<stop offset="0.632812" stop-color="#346565"/>
<stop offset="0.636719" stop-color="#346464"/>
<stop offset="0.640625" stop-color="#346364"/>
<stop offset="0.644531" stop-color="#336263"/>
<stop offset="0.648438" stop-color="#336262"/>
<stop offset="0.652344" stop-color="#336161"/>
<stop offset="0.65625" stop-color="#336060"/>
<stop offset="0.660156" stop-color="#325F60"/>
<stop offset="0.664062" stop-color="#325F5F"/>
<stop offset="0.667969" stop-color="#325E5E"/>
<stop offset="0.671875" stop-color="#325D5D"/>
<stop offset="0.675781" stop-color="#315C5C"/>
<stop offset="0.679687" stop-color="#315B5C"/>
<stop offset="0.683594" stop-color="#315B5B"/>
<stop offset="0.6875" stop-color="#315A5A"/>
<stop offset="0.691406" stop-color="#305959"/>
<stop offset="0.695312" stop-color="#305858"/>
<stop offset="0.699219" stop-color="#305858"/>
<stop offset="0.703125" stop-color="#305757"/>
<stop offset="0.707031" stop-color="#2F5656"/>
<stop offset="0.710938" stop-color="#2F5555"/>
<stop offset="0.714844" stop-color="#2F5454"/>
<stop offset="0.71875" stop-color="#2F5454"/>
<stop offset="0.722656" stop-color="#2E5353"/>
<stop offset="0.726562" stop-color="#2E5252"/>
<stop offset="0.730469" stop-color="#2E5151"/>
<stop offset="0.734375" stop-color="#2E5150"/>
<stop offset="0.738281" stop-color="#2D5050"/>
<stop offset="0.742187" stop-color="#2D4F4F"/>
<stop offset="0.746094" stop-color="#2D4E4E"/>
<stop offset="0.75" stop-color="#2D4E4D"/>
<stop offset="0.753906" stop-color="#2C4D4C"/>
<stop offset="0.757812" stop-color="#2C4C4C"/>
<stop offset="0.761719" stop-color="#2C4B4B"/>
<stop offset="0.765625" stop-color="#2C4A4A"/>
<stop offset="0.769531" stop-color="#2B4A49"/>
<stop offset="0.773438" stop-color="#2B4948"/>
<stop offset="0.777344" stop-color="#2B4848"/>
<stop offset="0.78125" stop-color="#2B4747"/>
<stop offset="0.785156" stop-color="#2A4746"/>
<stop offset="0.789062" stop-color="#2A4645"/>
<stop offset="0.792969" stop-color="#2A4544"/>
<stop offset="0.796875" stop-color="#2A4444"/>
<stop offset="0.800781" stop-color="#294343"/>
<stop offset="0.804688" stop-color="#294342"/>
<stop offset="0.808594" stop-color="#294241"/>
<stop offset="0.8125" stop-color="#294140"/>
<stop offset="0.816406" stop-color="#284040"/>
<stop offset="0.820312" stop-color="#28403F"/>
<stop offset="0.824219" stop-color="#283F3E"/>
<stop offset="0.828125" stop-color="#283E3D"/>
<stop offset="0.832031" stop-color="#273D3C"/>
<stop offset="0.835937" stop-color="#273D3C"/>
<stop offset="0.839844" stop-color="#273C3B"/>
<stop offset="0.84375" stop-color="#273B3A"/>
<stop offset="0.847656" stop-color="#263A39"/>
<stop offset="0.851562" stop-color="#263938"/>
<stop offset="0.855469" stop-color="#263938"/>
<stop offset="0.859375" stop-color="#263837"/>
<stop offset="0.863281" stop-color="#253736"/>
<stop offset="0.867188" stop-color="#253635"/>
<stop offset="0.871094" stop-color="#253634"/>
<stop offset="0.875" stop-color="#253534"/>
<stop offset="0.878906" stop-color="#243433"/>
<stop offset="0.882812" stop-color="#243332"/>
<stop offset="0.886719" stop-color="#243231"/>
<stop offset="0.890625" stop-color="#243230"/>
<stop offset="0.894531" stop-color="#233130"/>
<stop offset="0.898437" stop-color="#23302F"/>
<stop offset="0.902344" stop-color="#232F2E"/>
<stop offset="0.90625" stop-color="#232F2D"/>
<stop offset="0.910156" stop-color="#222E2C"/>
<stop offset="0.914062" stop-color="#222D2C"/>
<stop offset="0.917969" stop-color="#222C2B"/>
<stop offset="0.921875" stop-color="#222C2A"/>
<stop offset="0.925781" stop-color="#212B29"/>
<stop offset="0.929687" stop-color="#212A28"/>
<stop offset="0.933594" stop-color="#212928"/>
<stop offset="0.9375" stop-color="#212827"/>
<stop offset="0.941406" stop-color="#202826"/>
<stop offset="0.945312" stop-color="#202725"/>
<stop offset="0.949219" stop-color="#202624"/>
<stop offset="0.953125" stop-color="#202524"/>
<stop offset="0.957031" stop-color="#1F2523"/>
<stop offset="0.960938" stop-color="#1F2422"/>
<stop offset="0.964844" stop-color="#1F2321"/>
<stop offset="0.96875" stop-color="#1F2220"/>
<stop offset="0.972656" stop-color="#1E2120"/>
<stop offset="0.976562" stop-color="#1E211F"/>
<stop offset="0.980469" stop-color="#1E201E"/>
<stop offset="0.984375" stop-color="#1E1F1D"/>
<stop offset="0.988281" stop-color="#1D1E1C"/>
<stop offset="0.992188" stop-color="#1D1E1C"/>
<stop offset="1" stop-color="#1D1D1B"/>
</linearGradient>
</defs>
</svg>
