<svg width="1197" height="401" viewBox="0 0 1197 401" fill="none" xmlns="http://www.w3.org/2000/svg">
<rect width="1197" height="401" rx="24" fill="#F2F2F2"/>
<path d="M245.492 181.384C242.164 181.384 238.964 180.851 235.892 179.784C232.862 178.675 230.516 177.267 228.852 175.56L230.708 171.912C232.286 173.448 234.398 174.749 237.044 175.816C239.732 176.84 242.548 177.352 245.492 177.352C248.308 177.352 250.59 177.011 252.34 176.328C254.132 175.603 255.433 174.643 256.244 173.448C257.097 172.253 257.524 170.931 257.524 169.48C257.524 167.731 257.012 166.323 255.988 165.256C255.006 164.189 253.705 163.357 252.084 162.76C250.462 162.12 248.67 161.565 246.708 161.096C244.745 160.627 242.782 160.136 240.82 159.624C238.857 159.069 237.044 158.344 235.38 157.448C233.758 156.552 232.436 155.379 231.412 153.928C230.43 152.435 229.94 150.493 229.94 148.104C229.94 145.885 230.516 143.859 231.668 142.024C232.862 140.147 234.676 138.653 237.108 137.544C239.54 136.392 242.654 135.816 246.452 135.816C248.969 135.816 251.465 136.179 253.94 136.904C256.414 137.587 258.548 138.547 260.34 139.784L258.74 143.56C256.82 142.28 254.772 141.341 252.596 140.744C250.462 140.147 248.393 139.848 246.388 139.848C243.7 139.848 241.481 140.211 239.732 140.936C237.982 141.661 236.681 142.643 235.828 143.88C235.017 145.075 234.612 146.44 234.612 147.976C234.612 149.725 235.102 151.133 236.084 152.2C237.108 153.267 238.43 154.099 240.052 154.696C241.716 155.293 243.529 155.827 245.492 156.296C247.454 156.765 249.396 157.277 251.316 157.832C253.278 158.387 255.07 159.112 256.692 160.008C258.356 160.861 259.678 162.013 260.66 163.464C261.684 164.915 262.196 166.813 262.196 169.16C262.196 171.336 261.598 173.363 260.404 175.24C259.209 177.075 257.374 178.568 254.9 179.72C252.468 180.829 249.332 181.384 245.492 181.384ZM285.827 181.32C282.328 181.32 279.256 180.595 276.611 179.144C273.965 177.651 271.896 175.624 270.403 173.064C268.909 170.461 268.163 167.496 268.163 164.168C268.163 160.84 268.867 157.896 270.275 155.336C271.725 152.776 273.688 150.771 276.163 149.32C278.68 147.827 281.496 147.08 284.611 147.08C287.768 147.08 290.563 147.805 292.995 149.256C295.469 150.664 297.411 152.669 298.819 155.272C300.227 157.832 300.931 160.797 300.931 164.168C300.931 164.381 300.909 164.616 300.867 164.872C300.867 165.085 300.867 165.32 300.867 165.576H271.619V162.184H298.435L296.643 163.528C296.643 161.096 296.109 158.941 295.043 157.064C294.019 155.144 292.611 153.651 290.819 152.584C289.027 151.517 286.957 150.984 284.611 150.984C282.307 150.984 280.237 151.517 278.403 152.584C276.568 153.651 275.139 155.144 274.115 157.064C273.091 158.984 272.579 161.181 272.579 163.656V164.36C272.579 166.92 273.133 169.181 274.243 171.144C275.395 173.064 276.973 174.579 278.979 175.688C281.027 176.755 283.352 177.288 285.955 177.288C288.003 177.288 289.901 176.925 291.651 176.2C293.443 175.475 294.979 174.365 296.259 172.872L298.819 175.816C297.325 177.608 295.448 178.973 293.187 179.912C290.968 180.851 288.515 181.32 285.827 181.32ZM310.18 181V147.4H314.532V156.552L314.084 154.952C315.022 152.392 316.601 150.451 318.82 149.128C321.038 147.763 323.79 147.08 327.076 147.08V151.496C326.905 151.496 326.734 151.496 326.564 151.496C326.393 151.453 326.222 151.432 326.052 151.432C322.51 151.432 319.737 152.52 317.732 154.696C315.726 156.829 314.724 159.88 314.724 163.848V181H310.18ZM345.445 181L330.533 147.4H335.269L348.965 178.568H346.725L360.613 147.4H365.093L350.117 181H345.445ZM371.492 181V147.4H376.036V181H371.492ZM373.796 139.976C372.858 139.976 372.068 139.656 371.428 139.016C370.788 138.376 370.468 137.608 370.468 136.712C370.468 135.816 370.788 135.069 371.428 134.472C372.068 133.832 372.858 133.512 373.796 133.512C374.735 133.512 375.524 133.811 376.164 134.408C376.804 135.005 377.124 135.752 377.124 136.648C377.124 137.587 376.804 138.376 376.164 139.016C375.567 139.656 374.778 139.976 373.796 139.976ZM405.832 147.08C408.562 147.08 410.952 147.613 413 148.68C415.09 149.704 416.712 151.283 417.864 153.416C419.058 155.549 419.656 158.237 419.656 161.48V181H415.112V161.928C415.112 158.387 414.216 155.72 412.424 153.928C410.674 152.093 408.2 151.176 405 151.176C402.61 151.176 400.52 151.667 398.728 152.648C396.978 153.587 395.613 154.973 394.632 156.808C393.693 158.6 393.224 160.776 393.224 163.336V181H388.68V147.4H393.032V156.616L392.328 154.888C393.394 152.456 395.101 150.557 397.448 149.192C399.794 147.784 402.589 147.08 405.832 147.08ZM446.266 193.736C443.194 193.736 440.25 193.288 437.434 192.392C434.618 191.496 432.335 190.216 430.586 188.552L432.89 185.096C434.468 186.504 436.41 187.613 438.714 188.424C441.06 189.277 443.535 189.704 446.138 189.704C450.404 189.704 453.54 188.701 455.546 186.696C457.551 184.733 458.554 181.661 458.554 177.48V169.096L459.194 163.336L458.746 157.576V147.4H463.098V176.904C463.098 182.707 461.668 186.952 458.81 189.64C455.994 192.371 451.812 193.736 446.266 193.736ZM445.434 179.72C442.234 179.72 439.354 179.037 436.794 177.672C434.234 176.264 432.207 174.323 430.714 171.848C429.263 169.373 428.538 166.536 428.538 163.336C428.538 160.136 429.263 157.32 430.714 154.888C432.207 152.413 434.234 150.493 436.794 149.128C439.354 147.763 442.234 147.08 445.434 147.08C448.42 147.08 451.108 147.699 453.498 148.936C455.887 150.173 457.786 152.008 459.194 154.44C460.602 156.872 461.306 159.837 461.306 163.336C461.306 166.835 460.602 169.8 459.194 172.232C457.786 174.664 455.887 176.52 453.498 177.8C451.108 179.08 448.42 179.72 445.434 179.72ZM445.882 175.688C448.356 175.688 450.554 175.176 452.474 174.152C454.394 173.085 455.908 171.635 457.018 169.8C458.127 167.923 458.682 165.768 458.682 163.336C458.682 160.904 458.127 158.771 457.018 156.936C455.908 155.101 454.394 153.672 452.474 152.648C450.554 151.581 448.356 151.048 445.882 151.048C443.45 151.048 441.252 151.581 439.29 152.648C437.37 153.672 435.855 155.101 434.746 156.936C433.679 158.771 433.146 160.904 433.146 163.336C433.146 165.768 433.679 167.923 434.746 169.8C435.855 171.635 437.37 173.085 439.29 174.152C441.252 175.176 443.45 175.688 445.882 175.688ZM492.748 193.736C491.17 193.736 489.655 193.48 488.204 192.968C486.796 192.456 485.58 191.688 484.556 190.664L486.668 187.272C487.522 188.083 488.439 188.701 489.42 189.128C490.444 189.597 491.575 189.832 492.812 189.832C494.306 189.832 495.586 189.405 496.652 188.552C497.762 187.741 498.807 186.291 499.788 184.2L501.964 179.272L502.476 178.568L516.3 147.4H520.78L503.948 185.032C503.01 187.208 501.964 188.936 500.812 190.216C499.703 191.496 498.487 192.392 497.164 192.904C495.842 193.459 494.37 193.736 492.748 193.736ZM501.708 181.96L486.22 147.4H490.956L504.652 178.248L501.708 181.96ZM539.938 181.32C536.696 181.32 533.773 180.595 531.17 179.144C528.61 177.651 526.584 175.624 525.09 173.064C523.597 170.461 522.85 167.496 522.85 164.168C522.85 160.797 523.597 157.832 525.09 155.272C526.584 152.712 528.61 150.707 531.17 149.256C533.73 147.805 536.653 147.08 539.938 147.08C543.266 147.08 546.21 147.805 548.77 149.256C551.373 150.707 553.4 152.712 554.85 155.272C556.344 157.832 557.09 160.797 557.09 164.168C557.09 167.496 556.344 170.461 554.85 173.064C553.4 175.624 551.373 177.651 548.77 179.144C546.168 180.595 543.224 181.32 539.938 181.32ZM539.938 177.288C542.37 177.288 544.525 176.755 546.402 175.688C548.28 174.579 549.752 173.043 550.818 171.08C551.928 169.075 552.482 166.771 552.482 164.168C552.482 161.523 551.928 159.219 550.818 157.256C549.752 155.293 548.28 153.779 546.402 152.712C544.525 151.603 542.392 151.048 540.002 151.048C537.613 151.048 535.48 151.603 533.602 152.712C531.725 153.779 530.232 155.293 529.122 157.256C528.013 159.219 527.458 161.523 527.458 164.168C527.458 166.771 528.013 169.075 529.122 171.08C530.232 173.043 531.725 174.579 533.602 175.688C535.48 176.755 537.592 177.288 539.938 177.288ZM580.255 181.32C577.397 181.32 574.901 180.787 572.767 179.72C570.634 178.653 568.97 177.053 567.775 174.92C566.623 172.787 566.047 170.12 566.047 166.92V147.4H570.591V166.408C570.591 169.992 571.466 172.701 573.215 174.536C575.007 176.328 577.503 177.224 580.703 177.224C583.05 177.224 585.077 176.755 586.783 175.816C588.533 174.835 589.855 173.427 590.751 171.592C591.69 169.757 592.159 167.56 592.159 165V147.4H596.703V181H592.351V171.784L593.055 173.448C591.989 175.923 590.325 177.864 588.063 179.272C585.845 180.637 583.242 181.32 580.255 181.32ZM636.741 181.32C633.584 181.32 631.152 180.467 629.445 178.76C627.739 177.053 626.885 174.643 626.885 171.528V139.976H631.429V171.272C631.429 173.235 631.92 174.749 632.901 175.816C633.925 176.883 635.376 177.416 637.253 177.416C639.259 177.416 640.923 176.84 642.245 175.688L643.845 178.952C642.949 179.763 641.861 180.36 640.581 180.744C639.344 181.128 638.064 181.32 636.741 181.32ZM620.869 151.176V147.4H641.669V151.176H620.869ZM669.269 147.08C672 147.08 674.389 147.613 676.437 148.68C678.528 149.704 680.149 151.283 681.301 153.416C682.496 155.549 683.093 158.237 683.093 161.48V181H678.549V161.928C678.549 158.387 677.653 155.72 675.861 153.928C674.112 152.093 671.637 151.176 668.437 151.176C666.048 151.176 663.957 151.667 662.165 152.648C660.416 153.587 659.051 154.973 658.069 156.808C657.131 158.6 656.661 160.776 656.661 163.336V181H652.117V133.512H656.661V156.616L655.765 154.888C656.832 152.456 658.539 150.557 660.885 149.192C663.232 147.784 666.027 147.08 669.269 147.08ZM709.639 181.32C706.141 181.32 703.069 180.595 700.423 179.144C697.778 177.651 695.709 175.624 694.215 173.064C692.722 170.461 691.975 167.496 691.975 164.168C691.975 160.84 692.679 157.896 694.087 155.336C695.538 152.776 697.501 150.771 699.975 149.32C702.493 147.827 705.309 147.08 708.423 147.08C711.581 147.08 714.375 147.805 716.807 149.256C719.282 150.664 721.223 152.669 722.631 155.272C724.039 157.832 724.743 160.797 724.743 164.168C724.743 164.381 724.722 164.616 724.679 164.872C724.679 165.085 724.679 165.32 724.679 165.576H695.431V162.184H722.247L720.455 163.528C720.455 161.096 719.922 158.941 718.855 157.064C717.831 155.144 716.423 153.651 714.631 152.584C712.839 151.517 710.77 150.984 708.423 150.984C706.119 150.984 704.05 151.517 702.215 152.584C700.381 153.651 698.951 155.144 697.927 157.064C696.903 158.984 696.391 161.181 696.391 163.656V164.36C696.391 166.92 696.946 169.181 698.055 171.144C699.207 173.064 700.786 174.579 702.791 175.688C704.839 176.755 707.165 177.288 709.767 177.288C711.815 177.288 713.714 176.925 715.463 176.2C717.255 175.475 718.791 174.365 720.071 172.872L722.631 175.816C721.138 177.608 719.261 178.973 716.999 179.912C714.781 180.851 712.327 181.32 709.639 181.32ZM751.702 181V136.2H771.03C776.022 136.2 779.884 137.203 782.614 139.208C785.388 141.213 786.774 144.051 786.774 147.72C786.774 150.152 786.198 152.2 785.046 153.864C783.937 155.528 782.401 156.787 780.438 157.64C778.518 158.493 776.406 158.92 774.102 158.92L775.19 157.384C778.049 157.384 780.502 157.832 782.55 158.728C784.641 159.581 786.262 160.883 787.414 162.632C788.566 164.339 789.142 166.472 789.142 169.032C789.142 172.829 787.734 175.773 784.918 177.864C782.145 179.955 777.942 181 772.31 181H751.702ZM756.438 177.096H772.246C776.172 177.096 779.18 176.435 781.27 175.112C783.361 173.747 784.406 171.592 784.406 168.648C784.406 165.747 783.361 163.635 781.27 162.312C779.18 160.947 776.172 160.264 772.246 160.264H755.926V156.36H770.71C774.294 156.36 777.068 155.677 779.03 154.312C781.036 152.947 782.038 150.92 782.038 148.232C782.038 145.501 781.036 143.475 779.03 142.152C777.068 140.787 774.294 140.104 770.71 140.104H756.438V177.096ZM813.264 181.32C809.766 181.32 806.694 180.595 804.048 179.144C801.403 177.651 799.334 175.624 797.84 173.064C796.347 170.461 795.6 167.496 795.6 164.168C795.6 160.84 796.304 157.896 797.712 155.336C799.163 152.776 801.126 150.771 803.6 149.32C806.118 147.827 808.934 147.08 812.048 147.08C815.206 147.08 818 147.805 820.432 149.256C822.907 150.664 824.848 152.669 826.256 155.272C827.664 157.832 828.368 160.797 828.368 164.168C828.368 164.381 828.347 164.616 828.304 164.872C828.304 165.085 828.304 165.32 828.304 165.576H799.056V162.184H825.872L824.08 163.528C824.08 161.096 823.547 158.941 822.48 157.064C821.456 155.144 820.048 153.651 818.256 152.584C816.464 151.517 814.395 150.984 812.048 150.984C809.744 150.984 807.675 151.517 805.84 152.584C804.006 153.651 802.576 155.144 801.552 157.064C800.528 158.984 800.016 161.181 800.016 163.656V164.36C800.016 166.92 800.571 169.181 801.68 171.144C802.832 173.064 804.411 174.579 806.416 175.688C808.464 176.755 810.79 177.288 813.392 177.288C815.44 177.288 817.339 176.925 819.088 176.2C820.88 175.475 822.416 174.365 823.696 172.872L826.256 175.816C824.763 177.608 822.886 178.973 820.624 179.912C818.406 180.851 815.952 181.32 813.264 181.32ZM846.641 181.32C843.868 181.32 841.244 180.936 838.769 180.168C836.295 179.357 834.353 178.355 832.945 177.16L834.993 173.576C836.359 174.6 838.108 175.496 840.241 176.264C842.375 176.989 844.615 177.352 846.961 177.352C850.161 177.352 852.465 176.861 853.873 175.88C855.281 174.856 855.985 173.512 855.985 171.848C855.985 170.611 855.58 169.651 854.769 168.968C854.001 168.243 852.977 167.709 851.697 167.368C850.417 166.984 848.988 166.664 847.409 166.408C845.831 166.152 844.252 165.853 842.673 165.512C841.137 165.171 839.729 164.68 838.449 164.04C837.169 163.357 836.124 162.44 835.313 161.288C834.545 160.136 834.161 158.6 834.161 156.68C834.161 154.845 834.673 153.203 835.697 151.752C836.721 150.301 838.215 149.171 840.177 148.36C842.183 147.507 844.615 147.08 847.473 147.08C849.649 147.08 851.825 147.379 854.001 147.976C856.177 148.531 857.969 149.277 859.377 150.216L857.393 153.864C855.9 152.84 854.3 152.115 852.593 151.688C850.887 151.219 849.18 150.984 847.473 150.984C844.444 150.984 842.204 151.517 840.753 152.584C839.345 153.608 838.641 154.931 838.641 156.552C838.641 157.832 839.025 158.835 839.793 159.56C840.604 160.285 841.649 160.861 842.929 161.288C844.252 161.672 845.681 161.992 847.217 162.248C848.796 162.504 850.353 162.824 851.889 163.208C853.468 163.549 854.897 164.04 856.177 164.68C857.5 165.277 858.545 166.152 859.313 167.304C860.124 168.413 860.529 169.885 860.529 171.72C860.529 173.683 859.975 175.389 858.865 176.84C857.799 178.248 856.22 179.357 854.129 180.168C852.081 180.936 849.585 181.32 846.641 181.32ZM879.491 181.32C876.334 181.32 873.902 180.467 872.195 178.76C870.489 177.053 869.635 174.643 869.635 171.528V139.976H874.179V171.272C874.179 173.235 874.67 174.749 875.651 175.816C876.675 176.883 878.126 177.416 880.003 177.416C882.009 177.416 883.673 176.84 884.995 175.688L886.595 178.952C885.699 179.763 884.611 180.36 883.331 180.744C882.094 181.128 880.814 181.32 879.491 181.32ZM863.619 151.176V147.4H884.419V151.176H863.619ZM895.059 167.56L894.163 136.2H899.539L898.579 167.56H895.059ZM896.851 181.32C895.913 181.32 895.102 181 894.419 180.36C893.779 179.677 893.459 178.888 893.459 177.992C893.459 177.053 893.779 176.285 894.419 175.688C895.102 175.048 895.913 174.728 896.851 174.728C897.833 174.728 898.622 175.048 899.219 175.688C899.859 176.285 900.179 177.053 900.179 177.992C900.179 178.888 899.859 179.677 899.219 180.36C898.622 181 897.833 181.32 896.851 181.32Z" fill="black"/>
<path d="M101.967 300C101.711 300 101.487 299.904 101.295 299.712C101.103 299.52 101.007 299.296 101.007 299.04C101.007 298.88 101.023 298.704 101.055 298.512L112.959 267.456C113.087 267.136 113.263 266.88 113.487 266.688C113.711 266.496 114.047 266.4 114.495 266.4H117.759C118.175 266.4 118.495 266.496 118.719 266.688C118.975 266.88 119.167 267.136 119.295 267.456L131.151 298.512C131.215 298.704 131.247 298.88 131.247 299.04C131.247 299.296 131.151 299.52 130.959 299.712C130.767 299.904 130.543 300 130.287 300H127.839C127.455 300 127.167 299.904 126.975 299.712C126.815 299.52 126.703 299.344 126.639 299.184L123.999 292.368H108.255L105.615 299.184C105.583 299.344 105.471 299.52 105.279 299.712C105.087 299.904 104.799 300 104.415 300H101.967ZM109.647 288.24H122.607L116.127 271.2L109.647 288.24ZM144.395 300.48C142.603 300.48 141.067 300.256 139.787 299.808C138.507 299.36 137.467 298.816 136.667 298.176C135.867 297.536 135.259 296.896 134.843 296.256C134.459 295.616 134.251 295.104 134.219 294.72C134.187 294.368 134.299 294.096 134.555 293.904C134.811 293.712 135.067 293.616 135.323 293.616H137.435C137.627 293.616 137.771 293.648 137.867 293.712C137.995 293.744 138.155 293.872 138.347 294.096C138.763 294.544 139.227 294.992 139.739 295.44C140.251 295.888 140.875 296.256 141.611 296.544C142.379 296.832 143.323 296.976 144.443 296.976C146.075 296.976 147.419 296.672 148.475 296.064C149.531 295.424 150.059 294.496 150.059 293.28C150.059 292.48 149.835 291.84 149.387 291.36C148.971 290.88 148.203 290.448 147.083 290.064C145.995 289.68 144.491 289.28 142.571 288.864C140.651 288.416 139.131 287.872 138.011 287.232C136.891 286.56 136.091 285.776 135.611 284.88C135.131 283.952 134.891 282.912 134.891 281.76C134.891 280.576 135.243 279.44 135.947 278.352C136.651 277.232 137.675 276.32 139.019 275.616C140.395 274.912 142.107 274.56 144.155 274.56C145.819 274.56 147.243 274.768 148.427 275.184C149.611 275.6 150.587 276.128 151.355 276.768C152.123 277.376 152.699 277.984 153.083 278.592C153.467 279.2 153.675 279.712 153.707 280.128C153.739 280.448 153.643 280.72 153.419 280.944C153.195 281.136 152.939 281.232 152.651 281.232H150.635C150.411 281.232 150.219 281.184 150.059 281.088C149.931 280.992 149.803 280.88 149.675 280.752C149.355 280.336 148.971 279.92 148.523 279.504C148.107 279.088 147.547 278.752 146.843 278.496C146.171 278.208 145.275 278.064 144.155 278.064C142.555 278.064 141.355 278.4 140.555 279.072C139.755 279.744 139.355 280.592 139.355 281.616C139.355 282.224 139.531 282.768 139.883 283.248C140.235 283.728 140.907 284.16 141.899 284.544C142.891 284.928 144.363 285.344 146.315 285.792C148.427 286.208 150.091 286.768 151.307 287.472C152.523 288.176 153.387 288.992 153.899 289.92C154.411 290.848 154.667 291.92 154.667 293.136C154.667 294.48 154.267 295.712 153.467 296.832C152.699 297.952 151.547 298.848 150.011 299.52C148.507 300.16 146.635 300.48 144.395 300.48ZM161.376 300C161.056 300 160.784 299.904 160.56 299.712C160.368 299.488 160.272 299.216 160.272 298.896V267.024C160.272 266.704 160.368 266.448 160.56 266.256C160.784 266.032 161.056 265.92 161.376 265.92H163.776C164.128 265.92 164.4 266.032 164.592 266.256C164.784 266.448 164.88 266.704 164.88 267.024V278.208C165.744 277.12 166.8 276.24 168.048 275.568C169.296 274.896 170.88 274.56 172.8 274.56C174.88 274.56 176.64 275.024 178.08 275.952C179.552 276.848 180.656 278.112 181.392 279.744C182.16 281.344 182.544 283.216 182.544 285.36V298.896C182.544 299.216 182.448 299.488 182.256 299.712C182.064 299.904 181.792 300 181.44 300H179.04C178.72 300 178.448 299.904 178.224 299.712C178.032 299.488 177.936 299.216 177.936 298.896V285.6C177.936 283.36 177.392 281.616 176.304 280.368C175.216 279.088 173.616 278.448 171.504 278.448C169.52 278.448 167.92 279.088 166.704 280.368C165.488 281.616 164.88 283.36 164.88 285.6V298.896C164.88 299.216 164.784 299.488 164.592 299.712C164.4 299.904 164.128 300 163.776 300H161.376ZM190.626 300C190.306 300 190.034 299.904 189.81 299.712C189.618 299.488 189.522 299.216 189.522 298.896V267.024C189.522 266.704 189.618 266.448 189.81 266.256C190.034 266.032 190.306 265.92 190.626 265.92H192.882C193.234 265.92 193.506 266.032 193.698 266.256C193.89 266.448 193.986 266.704 193.986 267.024V298.896C193.986 299.216 193.89 299.488 193.698 299.712C193.506 299.904 193.234 300 192.882 300H190.626ZM211.082 300.48C207.786 300.48 205.162 299.472 203.21 297.456C201.258 295.408 200.186 292.624 199.994 289.104C199.962 288.688 199.946 288.16 199.946 287.52C199.946 286.848 199.962 286.304 199.994 285.888C200.122 283.616 200.65 281.632 201.578 279.936C202.506 278.208 203.77 276.88 205.37 275.952C207.002 275.024 208.906 274.56 211.082 274.56C213.514 274.56 215.546 275.072 217.178 276.096C218.842 277.12 220.106 278.576 220.97 280.464C221.834 282.352 222.266 284.56 222.266 287.088V287.904C222.266 288.256 222.154 288.528 221.93 288.72C221.738 288.912 221.482 289.008 221.162 289.008H204.554C204.554 289.04 204.554 289.104 204.554 289.2C204.554 289.296 204.554 289.376 204.554 289.44C204.618 290.752 204.906 291.984 205.418 293.136C205.93 294.256 206.666 295.168 207.626 295.872C208.586 296.576 209.738 296.928 211.082 296.928C212.234 296.928 213.194 296.752 213.962 296.4C214.73 296.048 215.354 295.664 215.834 295.248C216.314 294.8 216.634 294.464 216.794 294.24C217.082 293.824 217.306 293.584 217.466 293.52C217.626 293.424 217.882 293.376 218.234 293.376H220.538C220.858 293.376 221.114 293.472 221.306 293.664C221.53 293.824 221.626 294.064 221.594 294.384C221.562 294.864 221.306 295.456 220.826 296.16C220.346 296.832 219.658 297.504 218.762 298.176C217.866 298.848 216.778 299.408 215.498 299.856C214.218 300.272 212.746 300.48 211.082 300.48ZM204.554 285.696H217.706V285.552C217.706 284.112 217.434 282.832 216.89 281.712C216.378 280.592 215.626 279.712 214.634 279.072C213.642 278.4 212.458 278.064 211.082 278.064C209.706 278.064 208.522 278.4 207.53 279.072C206.57 279.712 205.834 280.592 205.322 281.712C204.81 282.832 204.554 284.112 204.554 285.552V285.696ZM231.436 309.12C231.18 309.12 230.956 309.024 230.764 308.832C230.572 308.64 230.476 308.416 230.476 308.16C230.476 308.032 230.492 307.904 230.524 307.776C230.556 307.648 230.62 307.488 230.716 307.296L234.412 298.512L225.244 276.864C225.084 276.48 225.004 276.208 225.004 276.048C225.004 275.76 225.1 275.52 225.292 275.328C225.484 275.136 225.724 275.04 226.012 275.04H228.364C228.684 275.04 228.94 275.12 229.132 275.28C229.324 275.44 229.452 275.632 229.516 275.856L236.812 293.328L244.3 275.856C244.396 275.632 244.524 275.44 244.684 275.28C244.876 275.12 245.148 275.04 245.5 275.04H247.756C248.044 275.04 248.284 275.136 248.476 275.328C248.668 275.52 248.764 275.744 248.764 276C248.764 276.16 248.684 276.448 248.524 276.864L234.892 308.304C234.796 308.528 234.652 308.72 234.46 308.88C234.3 309.04 234.044 309.12 233.692 309.12H231.436Z" fill="#75869C"/>
<path d="M478.325 257.18H500.755V263.109H493.891V304.714H500.755V310.644H478.325V304.714H485.189V263.109H478.325V257.18ZM510.101 257.18H518.673V281.35L539.975 257.18H551.479L529.437 280.028L553.381 310.644H542.295L523.7 285.281L518.673 290.438V310.644H510.101V257.18ZM560.181 257.18H596.403V264.366H568.624V279.642H593.181V286.764H568.624V303.264H597.338V310.644H560.181V257.18ZM621.895 256.922H630.467L651.35 310.644H642.101L636.622 296.013H615.771L610.293 310.644H601.044L621.895 256.922ZM634.302 289.084L629.307 275.484C627.889 271.66 626.89 268.287 626.31 265.365H626.052C625.493 268.287 624.505 271.66 623.087 275.484L618.06 289.084H634.302Z" fill="#75869C"/>
<path d="M882.694 300C882.342 300 882.07 299.904 881.878 299.712C881.686 299.488 881.59 299.216 881.59 298.896V267.552C881.59 267.2 881.686 266.928 881.878 266.736C882.07 266.512 882.342 266.4 882.694 266.4H885.094C885.446 266.4 885.718 266.512 885.91 266.736C886.134 266.928 886.246 267.2 886.246 267.552V279.456L899.062 267.168C899.19 267.04 899.398 266.88 899.686 266.688C900.006 266.496 900.422 266.4 900.934 266.4H903.526C903.782 266.4 904.006 266.496 904.198 266.688C904.39 266.88 904.486 267.104 904.486 267.36C904.486 267.616 904.422 267.824 904.294 267.984L889.462 282.48L905.254 298.368C905.414 298.56 905.494 298.784 905.494 299.04C905.494 299.296 905.398 299.52 905.206 299.712C905.014 299.904 904.79 300 904.534 300H901.846C901.302 300 900.886 299.904 900.598 299.712C900.31 299.488 900.102 299.328 899.974 299.232L886.246 285.696V298.896C886.246 299.216 886.134 299.488 885.91 299.712C885.718 299.904 885.446 300 885.094 300H882.694ZM910.898 300C910.578 300 910.306 299.904 910.082 299.712C909.89 299.488 909.794 299.216 909.794 298.896V276.144C909.794 275.824 909.89 275.568 910.082 275.376C910.306 275.152 910.578 275.04 910.898 275.04H913.154C913.474 275.04 913.73 275.152 913.922 275.376C914.146 275.568 914.258 275.824 914.258 276.144V278.256C915.09 277.168 916.13 276.288 917.378 275.616C918.658 274.912 920.29 274.56 922.274 274.56C924.354 274.56 926.114 275.024 927.554 275.952C929.026 276.848 930.13 278.112 930.866 279.744C931.602 281.344 931.97 283.216 931.97 285.36V298.896C931.97 299.216 931.874 299.488 931.682 299.712C931.49 299.904 931.234 300 930.914 300H928.514C928.194 300 927.922 299.904 927.698 299.712C927.506 299.488 927.41 299.216 927.41 298.896V285.6C927.41 283.36 926.866 281.616 925.778 280.368C924.69 279.088 923.09 278.448 920.978 278.448C918.994 278.448 917.394 279.088 916.178 280.368C914.994 281.616 914.402 283.36 914.402 285.6V298.896C914.402 299.216 914.29 299.488 914.066 299.712C913.874 299.904 913.618 300 913.298 300H910.898ZM949.128 300.48C946.696 300.48 944.664 300.016 943.032 299.088C941.4 298.16 940.152 296.88 939.288 295.248C938.424 293.584 937.944 291.696 937.848 289.584C937.816 289.04 937.8 288.352 937.8 287.52C937.8 286.656 937.816 285.968 937.848 285.456C937.944 283.312 938.424 281.424 939.288 279.792C940.184 278.16 941.448 276.88 943.08 275.952C944.712 275.024 946.728 274.56 949.128 274.56C951.528 274.56 953.544 275.024 955.176 275.952C956.808 276.88 958.056 278.16 958.92 279.792C959.816 281.424 960.312 283.312 960.408 285.456C960.44 285.968 960.456 286.656 960.456 287.52C960.456 288.352 960.44 289.04 960.408 289.584C960.312 291.696 959.832 293.584 958.968 295.248C958.104 296.88 956.856 298.16 955.224 299.088C953.592 300.016 951.56 300.48 949.128 300.48ZM949.128 296.784C951.112 296.784 952.696 296.16 953.88 294.912C955.064 293.632 955.704 291.776 955.8 289.344C955.832 288.864 955.848 288.256 955.848 287.52C955.848 286.784 955.832 286.176 955.8 285.696C955.704 283.264 955.064 281.424 953.88 280.176C952.696 278.896 951.112 278.256 949.128 278.256C947.144 278.256 945.544 278.896 944.328 280.176C943.144 281.424 942.52 283.264 942.456 285.696C942.424 286.176 942.408 286.784 942.408 287.52C942.408 288.256 942.424 288.864 942.456 289.344C942.52 291.776 943.144 293.632 944.328 294.912C945.544 296.16 947.144 296.784 949.128 296.784ZM964.705 300C964.449 300 964.209 299.904 963.985 299.712C963.793 299.52 963.697 299.28 963.697 298.992C963.697 298.896 963.713 298.784 963.745 298.656C963.809 298.496 963.905 298.32 964.033 298.128L972.385 287.232L964.561 276.912C964.433 276.72 964.337 276.56 964.273 276.432C964.241 276.304 964.225 276.176 964.225 276.048C964.225 275.76 964.321 275.52 964.513 275.328C964.705 275.136 964.945 275.04 965.233 275.04H967.681C968.033 275.04 968.289 275.136 968.449 275.328C968.641 275.488 968.801 275.648 968.929 275.808L975.313 284.112L981.697 275.856C981.825 275.696 981.969 275.52 982.129 275.328C982.321 275.136 982.593 275.04 982.945 275.04H985.297C985.585 275.04 985.825 275.136 986.017 275.328C986.209 275.52 986.305 275.76 986.305 276.048C986.305 276.176 986.273 276.304 986.209 276.432C986.177 276.56 986.097 276.72 985.969 276.912L978.049 287.328L986.401 298.128C986.529 298.32 986.609 298.48 986.641 298.608C986.705 298.736 986.737 298.864 986.737 298.992C986.737 299.28 986.641 299.52 986.449 299.712C986.257 299.904 986.017 300 985.729 300H983.185C982.865 300 982.609 299.92 982.417 299.76C982.225 299.6 982.065 299.44 981.937 299.28L975.169 290.496L968.401 299.28C968.273 299.408 968.113 299.568 967.921 299.76C967.761 299.92 967.505 300 967.153 300H964.705ZM1000.42 300C999.94 300 999.556 299.888 999.268 299.664C999.012 299.44 998.804 299.152 998.644 298.8L989.764 276.528C989.7 276.368 989.668 276.208 989.668 276.048C989.668 275.76 989.764 275.52 989.956 275.328C990.148 275.136 990.388 275.04 990.676 275.04H992.98C993.332 275.04 993.604 275.136 993.796 275.328C993.988 275.52 994.1 275.696 994.132 275.856L1001.48 294.768L1008.77 275.856C1008.84 275.696 1008.95 275.52 1009.11 275.328C1009.3 275.136 1009.57 275.04 1009.92 275.04H1012.28C1012.53 275.04 1012.76 275.136 1012.95 275.328C1013.17 275.52 1013.28 275.76 1013.28 276.048C1013.28 276.208 1013.25 276.368 1013.19 276.528L1004.26 298.8C1004.13 299.152 1003.92 299.44 1003.64 299.664C1003.38 299.888 1003 300 1002.48 300H1000.42ZM1019.41 300C1019.09 300 1018.82 299.904 1018.6 299.712C1018.41 299.488 1018.31 299.216 1018.31 298.896V276.144C1018.31 275.824 1018.41 275.568 1018.6 275.376C1018.82 275.152 1019.09 275.04 1019.41 275.04H1021.72C1022.04 275.04 1022.29 275.152 1022.49 275.376C1022.68 275.568 1022.77 275.824 1022.77 276.144V298.896C1022.77 299.216 1022.68 299.488 1022.49 299.712C1022.29 299.904 1022.04 300 1021.72 300H1019.41ZM1019.03 270.384C1018.71 270.384 1018.44 270.288 1018.21 270.096C1018.02 269.872 1017.93 269.6 1017.93 269.28V266.688C1017.93 266.368 1018.02 266.112 1018.21 265.92C1018.44 265.696 1018.71 265.584 1019.03 265.584H1022.05C1022.37 265.584 1022.63 265.696 1022.82 265.92C1023.05 266.112 1023.16 266.368 1023.16 266.688V269.28C1023.16 269.6 1023.05 269.872 1022.82 270.096C1022.63 270.288 1022.37 270.384 1022.05 270.384H1019.03ZM1031.09 300C1030.77 300 1030.49 299.904 1030.27 299.712C1030.08 299.488 1029.98 299.216 1029.98 298.896V267.024C1029.98 266.704 1030.08 266.448 1030.27 266.256C1030.49 266.032 1030.77 265.92 1031.09 265.92H1033.34C1033.69 265.92 1033.97 266.032 1034.16 266.256C1034.35 266.448 1034.45 266.704 1034.45 267.024V298.896C1034.45 299.216 1034.35 299.488 1034.16 299.712C1033.97 299.904 1033.69 300 1033.34 300H1031.09ZM1042.76 300C1042.44 300 1042.17 299.904 1041.94 299.712C1041.75 299.488 1041.65 299.216 1041.65 298.896V267.024C1041.65 266.704 1041.75 266.448 1041.94 266.256C1042.17 266.032 1042.44 265.92 1042.76 265.92H1045.01C1045.37 265.92 1045.64 266.032 1045.83 266.256C1046.02 266.448 1046.12 266.704 1046.12 267.024V298.896C1046.12 299.216 1046.02 299.488 1045.83 299.712C1045.64 299.904 1045.37 300 1045.01 300H1042.76ZM1063.21 300.48C1059.92 300.48 1057.29 299.472 1055.34 297.456C1053.39 295.408 1052.32 292.624 1052.13 289.104C1052.09 288.688 1052.08 288.16 1052.08 287.52C1052.08 286.848 1052.09 286.304 1052.13 285.888C1052.25 283.616 1052.78 281.632 1053.71 279.936C1054.64 278.208 1055.9 276.88 1057.5 275.952C1059.13 275.024 1061.04 274.56 1063.21 274.56C1065.65 274.56 1067.68 275.072 1069.31 276.096C1070.97 277.12 1072.24 278.576 1073.1 280.464C1073.97 282.352 1074.4 284.56 1074.4 287.088V287.904C1074.4 288.256 1074.29 288.528 1074.06 288.72C1073.87 288.912 1073.61 289.008 1073.29 289.008H1056.69C1056.69 289.04 1056.69 289.104 1056.69 289.2C1056.69 289.296 1056.69 289.376 1056.69 289.44C1056.75 290.752 1057.04 291.984 1057.55 293.136C1058.06 294.256 1058.8 295.168 1059.76 295.872C1060.72 296.576 1061.87 296.928 1063.21 296.928C1064.37 296.928 1065.33 296.752 1066.09 296.4C1066.86 296.048 1067.49 295.664 1067.97 295.248C1068.45 294.8 1068.77 294.464 1068.93 294.24C1069.21 293.824 1069.44 293.584 1069.6 293.52C1069.76 293.424 1070.01 293.376 1070.37 293.376H1072.67C1072.99 293.376 1073.25 293.472 1073.44 293.664C1073.66 293.824 1073.76 294.064 1073.73 294.384C1073.69 294.864 1073.44 295.456 1072.96 296.16C1072.48 296.832 1071.79 297.504 1070.89 298.176C1070 298.848 1068.91 299.408 1067.63 299.856C1066.35 300.272 1064.88 300.48 1063.21 300.48ZM1056.69 285.696H1069.84V285.552C1069.84 284.112 1069.57 282.832 1069.02 281.712C1068.51 280.592 1067.76 279.712 1066.77 279.072C1065.77 278.4 1064.59 278.064 1063.21 278.064C1061.84 278.064 1060.65 278.4 1059.66 279.072C1058.7 279.712 1057.97 280.592 1057.45 281.712C1056.94 282.832 1056.69 284.112 1056.69 285.552V285.696Z" fill="#75869C"/>
</svg>
